# xmcd CD database file
#
# Track frame offsets:
#	182
#	13705
#	26195
#	44197
#	59777
#	75685
#	93082
#	105570
#	120797
#	137222
#	150645
#	166667
#	181377
#	194740
#	215637
#
# Disc length: 3094 seconds
#
# Revision: 1
# Processed by: cddbd v1.5.2PL0 Copyright (c) Steve Scherf et al.
# Submitted via: CDex 1.51
#
DISCID=d10c140f
DTITLE=Roberta Miranda - Roberta Miranda
DYEAR=1900
DGENRE=Country
TTITLE0=São Tantas Coisas
TTITLE1=Reis dos Reis
TTITLE2=Benvinda
TTITLE3=Esperança
TTITLE4=Meu Dengo
TTITLE5=Vamos Falar de Nós
TTITLE6=Dói
TTITLE7=Que Amor é Esse
TTITLE8=Amor platônico
TTITLE9=Onde Andará
TTITLE10=Velhos Tempos
TTITLE11=Não Se Avexe, Não
TTITLE12=Chuva de Amor
TTITLE13=Luar do Sertão
TTITLE14=Vá Com Deus
EXTD=
EXTT0=
EXTT1=
EXTT2=
EXTT3=
EXTT4=
EXTT5=
EXTT6=
EXTT7=
EXTT8=
EXTT9=
EXTT10=
EXTT11=
EXTT12=
EXTT13=
EXTT14=
PLAYORDER=
